# xmcd
#
# Track frame offsets: 
#        150
#        27610
#        49522
#        65452
#        83600
#        106252
#        124312
#        149390
#        162132
#        187847
#        215402
#        227765
#
# Disc length: 3394 seconds
#
# Revision: 2
# Processed by: cddbd v1.5.2PL0 Copyright (c) Steve Scherf et al.
# Submitted via: ExactAudioCopy v0.99pb3
#
DISCID=9e0d400c
DTITLE=Sijano Vodjani - Karmapa, Secret Of The Crystal Mountain
DYEAR=1996
DGENRE=New Age
TTITLE0=Karmapa Jenno
TTITLE1=Echoes Of Potala
TTITLE2=Hommage To Guru Rimpoche
TTITLE3=Geshela's Prayer
TTITLE4=Arrival In Lhasa
TTITLE5=Himalayan Sky
TTITLE6=Invocation
TTITLE7=Picnic At Jarlung River
TTITLE8=Guru Rimpoche Goes West
TTITLE9=Cutting Through
TTITLE10=Dedication
TTITLE11=Ocean Of Joy
EXTD=YEAR: 1996
EXTT0=
EXTT1=
EXTT2=
EXTT3=
EXTT4=
EXTT5=
EXTT6=
EXTT7=
EXTT8=
EXTT9=
EXTT10=
EXTT11=
PLAYORDER=
